<svg width="225" height="60" fill="none" xmlns="http://www.w3.org/2000/svg"><g clip-path="url(#a)"><path d="m25.02 0-5.872 17.717H0l15.457 10.957L9.652 46.48 25.02 35.523 40.455 46.48l-5.872-17.805L49.95 17.716H30.892L25.02 0Z" fill="#E22130"/><path d="M103.68 16.149c-1.17-1.149-2.43-1.988-4.028-2.474-1.507-.575-3.284-.818-5.197-.818-1.935 0-3.69.332-5.468 1.083-1.754.75-3.194 1.811-4.364 2.96l-.09.088c-.585.663-1.103 1.326-1.508 2.055-.338.663-.675 1.237-.833 1.723-.157-.331-.427-.906-.764-1.48-.585-1.083-1.103-1.9-1.508-2.232-1.17-1.325-2.52-2.23-4.275-2.96-1.755-.75-3.6-1.082-5.715-1.082-1.35 0-3.285.154-5.378 1.149-2.43 1.148-4.455 2.96-5.872 5.61v-5.92h-1.935V46.9h1.935V28.1c0-2.143.248-3.954.765-5.611.495-1.657 1.26-2.894 2.273-4.131.832-1.149 2.092-2.055 3.532-2.629 1.418-.663 2.948-.994 4.522-.906 1.935.089 3.6.42 5.13 1.083 1.418.662 2.61 1.657 3.6 2.805.833 1.15 1.418 2.143 1.755 3.292.495 1.392.675 3.049.675 5.368v19.463h1.936V28.21c0-2.298.09-4.198.495-5.766.427-1.48 1.012-2.63 2.182-4.131 1.013-1.326 2.272-2.232 4.028-2.894 1.417-.486 3.015-.818 4.522-.818 1.688 0 3.105.243 4.455.752 1.35.508 2.34 1.237 3.285 2.142 1.17 1.15 2.025 2.563 2.52 4.374.585 1.812.833 3.866.833 6.429v18.535h1.935l.337-18.623c0-2.718-.337-5.103-1.012-7.092-.586-1.988-1.441-3.733-2.768-4.97ZM141.862 22.246c-1.012-2.298-2.947-4.617-5.467-6.274-2.947-1.988-6.458-2.96-10.148-2.96-6.704 0-10.822 2.96-13.184 5.523-2.858 3.137-4.523 7.422-4.523 11.796s1.688 8.66 4.523 11.797c2.272 2.474 6.457 5.523 13.184 5.523 3.443 0 6.548-.817 9.315-2.386 2.61-1.657 4.703-3.8 6.3-6.672v8.329h1.935V13.94h-1.935v8.306Zm-1.079 1.9c.337.905.675 1.811.832 2.717.248.994.338 2.055.338 2.96.09 1.083-.001 2.055-.158 2.96a11.594 11.594 0 0 1-.765 2.806c-1.103 3.049-3.015 5.678-5.625 7.423-2.52 1.811-5.715 2.717-8.977 2.717-4.86 0-8.888-1.723-11.835-4.86-2.52-2.806-4.118-6.672-4.118-10.714 0-4.374 1.688-8.24 4.523-11.134 2.947-2.806 6.884-4.44 11.249-4.44 3.195 0 6.3.905 8.82 2.474 2.61 1.9 4.613 4.285 5.716 7.09ZM151.2 18.866c1.755-1.569 3.532-2.563 5.287-3.292 1.755-.662 3.69-1.082 6.053-1.082h.157c2.858 0 5.783.817 8.235 2.231 2.858 1.812 5.04 4.286 6.21 7.423l.09.154h2.183l-.158-.33c-1.35-3.712-3.87-6.76-7.222-8.727-2.768-1.657-6.12-2.474-9.405-2.474-4.86 0-9.315 1.811-12.6 5.037-3.285 3.225-5.13 7.665-5.13 12.437 0 4.44 1.755 8.726 4.612 11.863 3.285 3.535 7.898 5.434 13.433 5.434 3.6 0 7.132-1.082 9.99-3.048a17.04 17.04 0 0 0 6.3-7.997l.157-.331h-2.182l-.09.154c-.833 2.386-2.61 4.706-4.95 6.34-2.678 2.055-6.12 3.049-9.653 3.049-2.092 0-4.117-.42-6.052-1.149-1.935-.817-3.533-1.9-5.04-3.225-1.508-1.48-2.61-3.137-3.443-5.103-.832-1.9-1.26-4.043-1.26-6.186s.495-4.374 1.26-6.34c.698-1.856 1.868-3.512 3.218-4.838Zm22.657-.155c1.508 1.392 2.768 3.226 3.6 5.369-.832-2.077-2.092-3.8-3.6-5.369Z" fill="#231F20"/><path d="M206.595 13.763h-2.183l-.09.155c0 .154-3.285 7.665-6.547 15.242l-6.458 14.912-6.12-14.912c-3.937-9.896-6.21-15.176-6.21-15.242l-.09-.155h-2.182l13.432 32.894L184.095 60h2.182l.09-.155s.158-.42.428-1.082c1.012-2.298 3.78-8.66 6.975-15.817.832-1.9 1.687-3.866 2.61-5.855l7.897-17.894c1.35-3.048 2.183-5.036 2.183-5.103l.135-.331ZM221.715 30.817c-1.845-1.325-4.118-1.988-6.39-2.474l-.247-.088c-2.61-.751-4.275-1.48-5.378-2.298-1.26-1.082-1.935-2.386-2.025-4.374 0-.905.09-1.811.428-2.562.247-.818.765-1.48 1.35-2.143.675-.751 1.507-1.237 2.34-1.657 1.012-.42 2.025-.575 3.104-.575h.158c1.012 0 1.935.155 2.677.486.833.332 1.598.818 2.183 1.392a6.19 6.19 0 0 1 1.417 2.143c.338.817.495 1.723.495 2.717v.243h1.935v-.198c0-2.386-.922-4.53-2.43-6.098-1.597-1.568-3.78-2.297-6.457-2.297-2.34 0-4.612.751-6.3 2.054-1.935 1.569-2.857 3.8-2.857 6.517.09 2.563 1.012 4.44 2.677 5.854 1.755 1.392 4.118 2.143 6.458 2.718 2.857.663 4.859 1.568 6.119 2.717 1.35 1.325 1.935 2.894 2.025 5.103v.243c0 1.082-.157 2.143-.585 2.96-.427.906-.922 1.723-1.687 2.386-.675.751-1.598 1.326-2.52 1.723-1.013.42-2.093.575-3.195.575-2.43 0-4.612-.752-6.12-2.143-1.507-1.48-2.272-3.468-2.34-5.854v-.243l-1.935.088v.663c0 1.148.248 2.23.675 3.291.428 1.083 1.013 2.055 1.845 2.806 1.013.994 2.183 1.811 3.533 2.297 1.35.486 2.767.818 4.365.818 1.417 0 2.767-.332 4.027-.818a11.736 11.736 0 0 0 3.285-2.23c.832-.907 1.597-1.989 2.025-3.138.495-1.148.675-2.386.585-3.711-.135-3.181-1.238-5.39-3.24-6.893ZM205.492 11.289l2.273-1.569 2.272 1.569-.922-2.63 2.34-1.656h-2.768l-.922-2.563-.833 2.563h-2.767l2.182 1.657-.855 2.629Z" fill="#231F20"/></g><defs><clipPath id="a"><path fill="#fff" d="M0 0h225v60H0z"/></clipPath></defs></svg>